<mxfile host="app.diagrams.net" agent="Mozilla/5.0 (Windows NT 10.0; Win64; x64) AppleWebKit/537.36 (KHTML, like Gecko) Chrome/128.0.0.0 Safari/537.36" version="24.7.12">
  <diagram name="Page-1" id="e7e014a7-5840-1c2e-5031-d8a46d1fe8dd">
    <mxGraphModel dx="1075" dy="464" grid="1" gridSize="10" guides="1" tooltips="1" connect="1" arrows="1" fold="1" page="1" pageScale="1" pageWidth="1169" pageHeight="826" background="none" math="0" shadow="0">
      <root>
        <mxCell id="0" />
        <mxCell id="1" parent="0" />
        <mxCell id="B49VRW1zQODccWnAjuR_-41" value="&lt;div&gt;order_info&lt;/div&gt;&lt;div&gt;订单信息&lt;/div&gt;&lt;div&gt;请求参数，响应参数，订单状态&lt;/div&gt;" style="rounded=0;whiteSpace=wrap;html=1;" vertex="1" parent="1">
          <mxGeometry x="450" y="330" width="120" height="60" as="geometry" />
        </mxCell>
        <mxCell id="B49VRW1zQODccWnAjuR_-44" style="edgeStyle=orthogonalEdgeStyle;rounded=0;orthogonalLoop=1;jettySize=auto;html=1;exitX=0.5;exitY=0;exitDx=0;exitDy=0;entryX=0.5;entryY=1;entryDx=0;entryDy=0;" edge="1" parent="1" source="B49VRW1zQODccWnAjuR_-43" target="B49VRW1zQODccWnAjuR_-41">
          <mxGeometry relative="1" as="geometry" />
        </mxCell>
        <mxCell id="B49VRW1zQODccWnAjuR_-43" value="&lt;div&gt;order_bm&lt;/div&gt;报名订单信息&lt;div&gt;报名项目，报名数量&lt;/div&gt;" style="rounded=0;whiteSpace=wrap;html=1;" vertex="1" parent="1">
          <mxGeometry x="450" y="480" width="120" height="60" as="geometry" />
        </mxCell>
        <mxCell id="B49VRW1zQODccWnAjuR_-46" style="edgeStyle=orthogonalEdgeStyle;rounded=0;orthogonalLoop=1;jettySize=auto;html=1;exitX=0.5;exitY=0;exitDx=0;exitDy=0;entryX=0.18;entryY=1.043;entryDx=0;entryDy=0;entryPerimeter=0;" edge="1" parent="1" source="B49VRW1zQODccWnAjuR_-45" target="B49VRW1zQODccWnAjuR_-43">
          <mxGeometry relative="1" as="geometry" />
        </mxCell>
        <mxCell id="B49VRW1zQODccWnAjuR_-45" value="order_bm_player&lt;div&gt;报名订单的选手信息&lt;/div&gt;" style="rounded=0;whiteSpace=wrap;html=1;" vertex="1" parent="1">
          <mxGeometry x="300" y="660" width="120" height="60" as="geometry" />
        </mxCell>
        <mxCell id="B49VRW1zQODccWnAjuR_-47" value="order_status_history&lt;div&gt;订单状态记录&lt;/div&gt;" style="rounded=0;whiteSpace=wrap;html=1;" vertex="1" parent="1">
          <mxGeometry x="730" y="250" width="120" height="60" as="geometry" />
        </mxCell>
        <mxCell id="B49VRW1zQODccWnAjuR_-48" style="edgeStyle=orthogonalEdgeStyle;rounded=0;orthogonalLoop=1;jettySize=auto;html=1;exitX=0;exitY=0.5;exitDx=0;exitDy=0;entryX=0.993;entryY=0.143;entryDx=0;entryDy=0;entryPerimeter=0;" edge="1" parent="1" source="B49VRW1zQODccWnAjuR_-47" target="B49VRW1zQODccWnAjuR_-41">
          <mxGeometry relative="1" as="geometry" />
        </mxCell>
        <mxCell id="B49VRW1zQODccWnAjuR_-49" value="order_bm_sun&lt;div&gt;报名订单的报名id&lt;/div&gt;" style="rounded=0;whiteSpace=wrap;html=1;" vertex="1" parent="1">
          <mxGeometry x="490" y="660" width="120" height="60" as="geometry" />
        </mxCell>
        <mxCell id="B49VRW1zQODccWnAjuR_-50" style="edgeStyle=orthogonalEdgeStyle;rounded=0;orthogonalLoop=1;jettySize=auto;html=1;exitX=0.5;exitY=0;exitDx=0;exitDy=0;entryX=0.68;entryY=1.043;entryDx=0;entryDy=0;entryPerimeter=0;" edge="1" parent="1" source="B49VRW1zQODccWnAjuR_-49" target="B49VRW1zQODccWnAjuR_-43">
          <mxGeometry relative="1" as="geometry" />
        </mxCell>
        <mxCell id="B49VRW1zQODccWnAjuR_-52" style="edgeStyle=orthogonalEdgeStyle;rounded=0;orthogonalLoop=1;jettySize=auto;html=1;exitX=0;exitY=0.5;exitDx=0;exitDy=0;entryX=1;entryY=0.75;entryDx=0;entryDy=0;" edge="1" parent="1" source="B49VRW1zQODccWnAjuR_-51" target="B49VRW1zQODccWnAjuR_-41">
          <mxGeometry relative="1" as="geometry" />
        </mxCell>
        <mxCell id="B49VRW1zQODccWnAjuR_-51" value="order_refunds&lt;div&gt;订单退款&lt;/div&gt;&lt;div&gt;退款订单号&lt;/div&gt;" style="rounded=0;whiteSpace=wrap;html=1;" vertex="1" parent="1">
          <mxGeometry x="730" y="370" width="120" height="60" as="geometry" />
        </mxCell>
        <mxCell id="B49VRW1zQODccWnAjuR_-59" style="edgeStyle=orthogonalEdgeStyle;rounded=0;orthogonalLoop=1;jettySize=auto;html=1;exitX=1;exitY=0.5;exitDx=0;exitDy=0;entryX=0;entryY=0.5;entryDx=0;entryDy=0;" edge="1" parent="1" source="B49VRW1zQODccWnAjuR_-53" target="B49VRW1zQODccWnAjuR_-55">
          <mxGeometry relative="1" as="geometry" />
        </mxCell>
        <mxCell id="B49VRW1zQODccWnAjuR_-53" value="下单" style="rounded=0;whiteSpace=wrap;html=1;" vertex="1" parent="1">
          <mxGeometry x="980" y="280" width="120" height="60" as="geometry" />
        </mxCell>
        <mxCell id="B49VRW1zQODccWnAjuR_-61" style="edgeStyle=orthogonalEdgeStyle;rounded=0;orthogonalLoop=1;jettySize=auto;html=1;exitX=1;exitY=0.5;exitDx=0;exitDy=0;" edge="1" parent="1" source="B49VRW1zQODccWnAjuR_-54" target="B49VRW1zQODccWnAjuR_-60">
          <mxGeometry relative="1" as="geometry" />
        </mxCell>
        <mxCell id="B49VRW1zQODccWnAjuR_-54" value="支付" style="rounded=0;whiteSpace=wrap;html=1;" vertex="1" parent="1">
          <mxGeometry x="1340" y="280" width="120" height="60" as="geometry" />
        </mxCell>
        <mxCell id="B49VRW1zQODccWnAjuR_-57" style="edgeStyle=orthogonalEdgeStyle;rounded=0;orthogonalLoop=1;jettySize=auto;html=1;exitX=1;exitY=0.5;exitDx=0;exitDy=0;entryX=0;entryY=0.5;entryDx=0;entryDy=0;" edge="1" parent="1" source="B49VRW1zQODccWnAjuR_-55" target="B49VRW1zQODccWnAjuR_-54">
          <mxGeometry relative="1" as="geometry" />
        </mxCell>
        <mxCell id="B49VRW1zQODccWnAjuR_-58" style="edgeStyle=orthogonalEdgeStyle;rounded=0;orthogonalLoop=1;jettySize=auto;html=1;exitX=0.5;exitY=1;exitDx=0;exitDy=0;entryX=0.5;entryY=0;entryDx=0;entryDy=0;" edge="1" parent="1" source="B49VRW1zQODccWnAjuR_-55" target="B49VRW1zQODccWnAjuR_-56">
          <mxGeometry relative="1" as="geometry" />
        </mxCell>
        <mxCell id="B49VRW1zQODccWnAjuR_-55" value="" style="rhombus;whiteSpace=wrap;html=1;" vertex="1" parent="1">
          <mxGeometry x="1169" y="270" width="80" height="80" as="geometry" />
        </mxCell>
        <mxCell id="B49VRW1zQODccWnAjuR_-56" value="取消订单" style="rounded=0;whiteSpace=wrap;html=1;" vertex="1" parent="1">
          <mxGeometry x="1149" y="410" width="120" height="60" as="geometry" />
        </mxCell>
        <mxCell id="B49VRW1zQODccWnAjuR_-60" value="退款" style="rounded=0;whiteSpace=wrap;html=1;" vertex="1" parent="1">
          <mxGeometry x="1540" y="280" width="120" height="60" as="geometry" />
        </mxCell>
      </root>
    </mxGraphModel>
  </diagram>
</mxfile>
